# xmcd CD database file
#
# Track frame offsets:
#	150
#	16797
#	36587
#	57815
#	76455
#	100870
#	118817
#	158732
#	170230
#
# Disc length: 2539 seconds
#
# Revision: 0
# Processed by: cddbd v1.5.1PL2 Copyright (c) Steve Scherf et al.
# Submitted via: CDex 1.51
#
DISCID=7009e909
DTITLE=STEVIE RAY VAUGHAN AND DOUBLE TROUBLE - Remastered
DYEAR=1900
DGENRE=Blues
TTITLE0=Pride And Joy
TTITLE1=Testify (Live)
TTITLE2=Couldn't Stand The Weather
TTITLE3=Give Me Back My Wig
TTITLE4=Say What !
TTITLE5=Change It
TTITLE6=Riviera Paradise
TTITLE7=The House Is Rockin' (Live)
TTITLE8=Shake 'N' Bake
EXTD=
EXTT0=
EXTT1=
EXTT2=
EXTT3=
EXTT4=
EXTT5=
EXTT6=
EXTT7=
EXTT8=
PLAYORDER=
